<svg xmlns="http://www.w3.org/2000/svg" xmlns:xlink="http://www.w3.org/1999/xlink" width="237.877" height="125.046" viewBox="0 0 237.877 125.046">
  <defs>
    <linearGradient id="linear-gradient" x1="0.112" y1="0.801" x2="1.057" y2="0.231" gradientUnits="objectBoundingBox">
      <stop offset="0" stop-color="#9ef2ff"/>
      <stop offset="1" stop-color="#5b66ff"/>
    </linearGradient>
    <filter id="Path_7" x="55.714" y="0" width="125.046" height="125.046" filterUnits="userSpaceOnUse">
      <feOffset dx="-1" dy="3" input="SourceAlpha"/>
      <feGaussianBlur stdDeviation="4.5" result="blur"/>
      <feFlood flood-color="#a1d9ff"/>
      <feComposite operator="in" in2="blur"/>
      <feComposite in="SourceGraphic"/>
    </filter>
    <linearGradient id="linear-gradient-2" x1="0.975" y1="0.107" x2="-0.064" y2="0.843" gradientUnits="objectBoundingBox">
      <stop offset="0" stop-color="#aff1ff"/>
      <stop offset="1" stop-color="#70bffc"/>
    </linearGradient>
    <linearGradient id="linear-gradient-3" x1="1.114" y1="0.133" x2="-0.238" y2="0.923" gradientUnits="objectBoundingBox">
      <stop offset="0" stop-color="#93dcff"/>
      <stop offset="1" stop-color="#88c4ff"/>
    </linearGradient>
    <linearGradient id="linear-gradient-4" x1="1.123" y1="0.112" x2="-0.125" y2="0.913" gradientUnits="objectBoundingBox">
      <stop offset="0" stop-color="#96e1ff"/>
      <stop offset="1" stop-color="#7fb2ff"/>
    </linearGradient>
    <linearGradient id="linear-gradient-5" x1="1.123" y1="0.112" x2="-0.125" y2="0.913" gradientUnits="objectBoundingBox">
      <stop offset="0" stop-color="#93dbff"/>
      <stop offset="1" stop-color="#7ba9ff"/>
    </linearGradient>
    <linearGradient id="linear-gradient-6" x1="1.123" y1="0.112" x2="-0.125" y2="0.913" gradientUnits="objectBoundingBox">
      <stop offset="0" stop-color="#8ac8ff"/>
      <stop offset="1" stop-color="#7091ff"/>
    </linearGradient>
    <linearGradient id="linear-gradient-7" x1="0.227" y1="0.518" x2="1.674" y2="0.593" xlink:href="#linear-gradient-6"/>
    <linearGradient id="linear-gradient-8" x1="1.123" y1="0.112" x2="-0.125" y2="0.913" gradientUnits="objectBoundingBox">
      <stop offset="0" stop-color="#98e4ff"/>
      <stop offset="1" stop-color="#7fb2ff"/>
    </linearGradient>
    <linearGradient id="linear-gradient-9" x1="1.123" y1="0.112" x2="-0.125" y2="0.913" gradientUnits="objectBoundingBox">
      <stop offset="0" stop-color="#93daff"/>
      <stop offset="1" stop-color="#7dacff"/>
    </linearGradient>
    <linearGradient id="linear-gradient-11" x1="1.293" y1="0.361" x2="-0.302" y2="0.627" gradientUnits="objectBoundingBox">
      <stop offset="0" stop-color="#657bff"/>
      <stop offset="1" stop-color="#7dadff"/>
    </linearGradient>
    <linearGradient id="linear-gradient-12" x1="1.123" y1="0.112" x2="-0.125" y2="0.913" gradientUnits="objectBoundingBox">
      <stop offset="0" stop-color="#a7fcff"/>
      <stop offset="1" stop-color="#8ed1ff"/>
    </linearGradient>
    <linearGradient id="linear-gradient-14" x1="-0.074" y1="0.47" x2="1.295" y2="0.365" gradientUnits="objectBoundingBox">
      <stop offset="0" stop-color="#86c0ff"/>
      <stop offset="1" stop-color="#6983ff"/>
    </linearGradient>
    <linearGradient id="linear-gradient-16" x1="1.123" y1="0.112" x2="-0.125" y2="0.913" gradientUnits="objectBoundingBox">
      <stop offset="0" stop-color="#aff4ff"/>
      <stop offset="1" stop-color="#78c7fe"/>
    </linearGradient>
    <linearGradient id="linear-gradient-17" x1="0.638" y1="0.325" x2="0.122" y2="1.127" gradientUnits="objectBoundingBox">
      <stop offset="0" stop-color="#fff"/>
      <stop offset="1" stop-color="#afcaff"/>
    </linearGradient>
    <linearGradient id="linear-gradient-18" x1="0.5" y1="0.163" x2="-0.275" y2="1.23" xlink:href="#linear-gradient-17"/>
    <linearGradient id="linear-gradient-19" x1="0.5" y1="0" x2="0.113" y2="1.165" xlink:href="#linear-gradient-17"/>
    <linearGradient id="linear-gradient-20" x1="0.804" y1="0.204" x2="0.382" y2="2.828" xlink:href="#linear-gradient-17"/>
  </defs>
  <g id="Group_15" data-name="Group 15" transform="translate(-841.787 -480.567)">
    <g transform="matrix(1, 0, 0, 1, 841.79, 480.57)" filter="url(#Path_7)">
      <path id="Path_7-2" data-name="Path 7" d="M48.19,0A48.19,48.19,0,1,1,0,48.19,48.19,48.19,0,0,1,48.19,0Z" transform="translate(168.26 106.86) rotate(179)" fill="url(#linear-gradient)"/>
    </g>
    <ellipse id="Ellipse_18" data-name="Ellipse 18" cx="5.578" cy="5.578" rx="5.578" ry="5.578" transform="translate(995.107 529.337) rotate(179)" fill="url(#linear-gradient-2)"/>
    <ellipse id="Ellipse_19" data-name="Ellipse 19" cx="9.637" cy="9.637" rx="9.637" ry="9.637" transform="translate(976.951 519.156) rotate(179)" fill="url(#linear-gradient-3)"/>
    <ellipse id="Ellipse_20" data-name="Ellipse 20" cx="3.549" cy="3.549" rx="3.549" ry="3.549" transform="translate(980.868 539.519) rotate(179)" fill="url(#linear-gradient-4)"/>
    <ellipse id="Ellipse_57" data-name="Ellipse 57" cx="3.549" cy="3.549" rx="3.549" ry="3.549" transform="translate(991.013 576.043) rotate(179)" fill="url(#linear-gradient-5)"/>
    <ellipse id="Ellipse_50" data-name="Ellipse 50" cx="3.549" cy="3.549" rx="3.549" ry="3.549" transform="translate(932.169 519.228) rotate(179)" fill="url(#linear-gradient-6)"/>
    <ellipse id="Ellipse_61" data-name="Ellipse 61" cx="3.549" cy="3.549" rx="3.549" ry="3.549" transform="matrix(0.629, -0.777, 0.777, 0.629, 955.937, 535.255)" fill="url(#linear-gradient-7)"/>
    <ellipse id="Ellipse_54" data-name="Ellipse 54" cx="5.578" cy="5.578" rx="5.578" ry="5.578" transform="translate(1001.23 565.896) rotate(179)" fill="url(#linear-gradient-8)"/>
    <ellipse id="Ellipse_51" data-name="Ellipse 51" cx="1.52" cy="1.52" rx="1.52" ry="1.52" transform="translate(950.396 503.031) rotate(179)" fill="url(#linear-gradient-9)"/>
    <ellipse id="Ellipse_53" data-name="Ellipse 53" cx="1.52" cy="1.52" rx="1.52" ry="1.52" transform="translate(960.542 523.322) rotate(179)" fill="url(#linear-gradient-9)"/>
    <ellipse id="Ellipse_60" data-name="Ellipse 60" cx="1.52" cy="1.52" rx="1.52" ry="1.52" transform="matrix(0.629, -0.777, 0.777, 0.629, 934.564, 554.358)" fill="url(#linear-gradient-11)"/>
    <ellipse id="Ellipse_56" data-name="Ellipse 56" cx="1.52" cy="1.52" rx="1.52" ry="1.52" transform="translate(988.949 515.205) rotate(179)" fill="url(#linear-gradient-12)"/>
    <ellipse id="Ellipse_52" data-name="Ellipse 52" cx="2.535" cy="2.535" rx="2.535" ry="2.535" transform="translate(950.396 511.147) rotate(179)" fill="url(#linear-gradient-9)"/>
    <ellipse id="Ellipse_58" data-name="Ellipse 58" cx="2.535" cy="2.535" rx="2.535" ry="2.535" transform="matrix(0.629, -0.777, 0.777, 0.629, 950.412, 554.412)" fill="url(#linear-gradient-14)"/>
    <ellipse id="Ellipse_62" data-name="Ellipse 62" cx="1.52" cy="1.52" rx="1.52" ry="1.52" transform="matrix(0.629, -0.777, 0.777, 0.629, 957.776, 560.951)" fill="url(#linear-gradient-14)"/>
    <ellipse id="Ellipse_55" data-name="Ellipse 55" cx="2.535" cy="2.535" rx="2.535" ry="2.535" transform="translate(1007.211 541.583) rotate(179)" fill="url(#linear-gradient-16)"/>
    <g id="Group_12" data-name="Group 12" transform="translate(841.787 544.687)" opacity="0">
      <path id="Path_3" data-name="Path 3" d="M19.3.007c9.8,0,17.278-.6,17.278,9.208s-8.2,20.119-18,20.119S0,19.658,0,9.853,9.495.007,19.3.007Z" transform="translate(48.606 29.334) rotate(180)" fill="url(#linear-gradient-17)"/>
      <path id="Path_4" data-name="Path 4" d="M11.366.048c6.443,0,11.965-.943,11.965,5.5A11.666,11.666,0,0,1,0,5.548C0-.895,4.923.048,11.366.048Z" transform="translate(53.763 29.6) rotate(180)" fill="url(#linear-gradient-18)"/>
      <path id="Path_6" data-name="Path 6" d="M5.4.058C8.563.058,10.955-.6,10.955,2.5A5.342,5.342,0,0,1,5.538,8.026,5.286,5.286,0,0,1,0,2.688C0-.407,2.235.058,5.4.058Z" transform="translate(59.877 29.671) rotate(180)" fill="url(#linear-gradient-19)"/>
      <path id="Path_5" data-name="Path 5" d="M10.595.031c6.443,0,12.736-.792,12.736,5.651A11.666,11.666,0,0,1,0,5.682C0-.761,4.152.031,10.595.031Z" transform="translate(23.331 29.557) rotate(180)" fill="url(#linear-gradient-20)"/>
    </g>
    <g id="Group_16" data-name="Group 16" transform="translate(1019.787 544.687)" opacity="0">
      <path id="Path_3-2" data-name="Path 3" d="M19.3.007c9.8,0,17.278-.6,17.278,9.208s-8.2,20.119-18,20.119S0,19.658,0,9.853,9.495.007,19.3.007Z" transform="translate(48.606 29.334) rotate(180)" fill="url(#linear-gradient-17)"/>
      <path id="Path_4-2" data-name="Path 4" d="M11.366.048c6.443,0,11.965-.943,11.965,5.5A11.666,11.666,0,0,1,0,5.548C0-.895,4.923.048,11.366.048Z" transform="translate(53.763 29.6) rotate(180)" fill="url(#linear-gradient-18)"/>
      <path id="Path_6-2" data-name="Path 6" d="M5.4.058C8.563.058,10.955-.6,10.955,2.5A5.342,5.342,0,0,1,5.538,8.026,5.286,5.286,0,0,1,0,2.688C0-.407,2.235.058,5.4.058Z" transform="translate(59.877 29.671) rotate(180)" fill="url(#linear-gradient-19)"/>
      <path id="Path_5-2" data-name="Path 5" d="M10.595.031c6.443,0,12.736-.792,12.736,5.651A11.666,11.666,0,0,1,0,5.682C0-.761,4.152.031,10.595.031Z" transform="translate(23.331 29.557) rotate(180)" fill="url(#linear-gradient-20)"/>
    </g>
    <g id="Group_17" data-name="Group 17" transform="translate(910.787 544.687)">
      <path id="Path_3-3" data-name="Path 3" d="M19.3.007c9.8,0,17.278-.6,17.278,9.208s-8.2,20.119-18,20.119S0,19.658,0,9.853,9.495.007,19.3.007Z" transform="translate(48.606 29.334) rotate(180)" fill="url(#linear-gradient-17)"/>
      <path id="Path_4-3" data-name="Path 4" d="M11.366.048c6.443,0,11.965-.943,11.965,5.5A11.666,11.666,0,0,1,0,5.548C0-.895,4.923.048,11.366.048Z" transform="translate(53.763 29.6) rotate(180)" fill="url(#linear-gradient-18)"/>
      <path id="Path_6-3" data-name="Path 6" d="M5.4.058C8.563.058,10.955-.6,10.955,2.5A5.342,5.342,0,0,1,5.538,8.026,5.286,5.286,0,0,1,0,2.688C0-.407,2.235.058,5.4.058Z" transform="translate(59.877 29.671) rotate(180)" fill="url(#linear-gradient-19)"/>
      <path id="Path_5-3" data-name="Path 5" d="M10.595.031c6.443,0,12.736-.792,12.736,5.651A11.666,11.666,0,0,1,0,5.682C0-.761,4.152.031,10.595.031Z" transform="translate(23.331 29.557) rotate(180)" fill="url(#linear-gradient-20)"/>
    </g>
  </g>
</svg>
