<svg xmlns="http://www.w3.org/2000/svg" xmlns:xlink="http://www.w3.org/1999/xlink" width="118.426" height="119.046" viewBox="0 0 118.426 119.046">
  <defs>
    <filter id="Rectangle_12" x="44.966" y="82.405" width="29.945" height="36.641" filterUnits="userSpaceOnUse">
      <feOffset dy="2" input="SourceAlpha"/>
      <feGaussianBlur stdDeviation="3.5" result="blur"/>
      <feFlood flood-color="#feb06b"/>
      <feComposite operator="in" in2="blur"/>
      <feComposite in="SourceGraphic"/>
    </filter>
    <filter id="Rectangle_19" x="43.527" y="0" width="29.945" height="36.641" filterUnits="userSpaceOnUse">
      <feOffset dy="2" input="SourceAlpha"/>
      <feGaussianBlur stdDeviation="3.5" result="blur-2"/>
      <feFlood flood-color="#feb06b"/>
      <feComposite operator="in" in2="blur-2"/>
      <feComposite in="SourceGraphic"/>
    </filter>
    <filter id="Rectangle_20" x="0" y="44.954" width="36.641" height="29.945" filterUnits="userSpaceOnUse">
      <feOffset dy="2" input="SourceAlpha"/>
      <feGaussianBlur stdDeviation="3.5" result="blur-3"/>
      <feFlood flood-color="#feb06b"/>
      <feComposite operator="in" in2="blur-3"/>
      <feComposite in="SourceGraphic"/>
    </filter>
    <filter id="Rectangle_21" x="81.785" y="43.527" width="36.641" height="29.945" filterUnits="userSpaceOnUse">
      <feOffset dy="2" input="SourceAlpha"/>
      <feGaussianBlur stdDeviation="3.5" result="blur-4"/>
      <feFlood flood-color="#feb06b"/>
      <feComposite operator="in" in2="blur-4"/>
      <feComposite in="SourceGraphic"/>
    </filter>
    <filter id="Rectangle_22" x="68.824" y="10.499" width="38.002" height="38.171" filterUnits="userSpaceOnUse">
      <feOffset dy="2" input="SourceAlpha"/>
      <feGaussianBlur stdDeviation="3.5" result="blur-5"/>
      <feFlood flood-color="#feb06b"/>
      <feComposite operator="in" in2="blur-5"/>
      <feComposite in="SourceGraphic"/>
    </filter>
    <filter id="Rectangle_23" x="11.6" y="69.757" width="38.002" height="38.171" filterUnits="userSpaceOnUse">
      <feOffset dy="2" input="SourceAlpha"/>
      <feGaussianBlur stdDeviation="3.5" result="blur-6"/>
      <feFlood flood-color="#feb06b"/>
      <feComposite operator="in" in2="blur-6"/>
      <feComposite in="SourceGraphic"/>
    </filter>
    <filter id="Rectangle_24" x="69.757" y="68.824" width="38.171" height="38.002" filterUnits="userSpaceOnUse">
      <feOffset dy="2" input="SourceAlpha"/>
      <feGaussianBlur stdDeviation="3.5" result="blur-7"/>
      <feFlood flood-color="#feb06b"/>
      <feComposite operator="in" in2="blur-7"/>
      <feComposite in="SourceGraphic"/>
    </filter>
    <filter id="Rectangle_25" x="10.499" y="11.6" width="38.171" height="38.002" filterUnits="userSpaceOnUse">
      <feOffset dy="2" input="SourceAlpha"/>
      <feGaussianBlur stdDeviation="3.5" result="blur-8"/>
      <feFlood flood-color="#feb06b"/>
      <feComposite operator="in" in2="blur-8"/>
      <feComposite in="SourceGraphic"/>
    </filter>
    <linearGradient id="linear-gradient" x1="0.064" y1="0.695" x2="1.891" y2="0.145" gradientUnits="objectBoundingBox">
      <stop offset="0" stop-color="#ffac30"/>
      <stop offset="1" stop-color="#ff5313"/>
    </linearGradient>
    <filter id="Ellipse_1" x="21.611" y="21.916" width="75.214" height="75.214" filterUnits="userSpaceOnUse">
      <feOffset dy="2" input="SourceAlpha"/>
      <feGaussianBlur stdDeviation="3.5" result="blur-9"/>
      <feFlood flood-color="#feb06b"/>
      <feComposite operator="in" in2="blur-9"/>
      <feComposite in="SourceGraphic"/>
    </filter>
  </defs>
  <g id="Group_7" data-name="Group 7" transform="translate(-344.593 -471.776)">
    <g transform="matrix(1, 0, 0, 1, 344.59, 471.78)" filter="url(#Rectangle_12)">
      <rect id="Rectangle_12-2" data-name="Rectangle 12" width="8.676" height="15.492" rx="4.338" transform="translate(64.41 106.39) rotate(179)" fill="#ff9027"/>
    </g>
    <g transform="matrix(1, 0, 0, 1, 344.59, 471.78)" filter="url(#Rectangle_19)">
      <rect id="Rectangle_19-2" data-name="Rectangle 19" width="8.676" height="15.492" rx="4.338" transform="translate(62.97 23.99) rotate(179)" fill="#ff992a"/>
    </g>
    <g transform="matrix(1, 0, 0, 1, 344.59, 471.78)" filter="url(#Rectangle_20)">
      <rect id="Rectangle_20-2" data-name="Rectangle 20" width="8.676" height="15.492" rx="4.338" transform="translate(10.65 62.4) rotate(-91)" fill="#ff8223"/>
    </g>
    <g transform="matrix(1, 0, 0, 1, 344.59, 471.78)" filter="url(#Rectangle_21)">
      <rect id="Rectangle_21-2" data-name="Rectangle 21" width="8.676" height="15.492" rx="4.338" transform="translate(92.44 60.97) rotate(-91)" fill="#ffab30"/>
    </g>
    <g transform="matrix(1, 0, 0, 1, 344.59, 471.78)" filter="url(#Rectangle_22)">
      <rect id="Rectangle_22-2" data-name="Rectangle 22" width="8.676" height="15.492" rx="4.338" transform="translate(85.57 36.17) rotate(-136)" fill="#ffa52f"/>
    </g>
    <g transform="matrix(1, 0, 0, 1, 344.59, 471.78)" filter="url(#Rectangle_23)">
      <rect id="Rectangle_23-2" data-name="Rectangle 23" width="8.676" height="15.492" rx="4.338" transform="translate(28.34 95.43) rotate(-136)" fill="#ff8222"/>
    </g>
    <g transform="matrix(1, 0, 0, 1, 344.59, 471.78)" filter="url(#Rectangle_24)">
      <rect id="Rectangle_24-2" data-name="Rectangle 24" width="8.676" height="15.492" rx="4.338" transform="translate(97.43 88.09) rotate(134)" fill="#ff9f2c"/>
    </g>
    <g transform="matrix(1, 0, 0, 1, 344.59, 471.78)" filter="url(#Rectangle_25)">
      <rect id="Rectangle_25-2" data-name="Rectangle 25" width="8.676" height="15.492" rx="4.338" transform="translate(38.17 30.86) rotate(134)" fill="#ff8b26"/>
    </g>
    <g transform="matrix(1, 0, 0, 1, 344.59, 471.78)" filter="url(#Ellipse_1)">
      <ellipse id="Ellipse_1-2" data-name="Ellipse 1" cx="26.646" cy="26.646" rx="26.646" ry="26.646" transform="translate(86.33 83.7) rotate(179)" fill="url(#linear-gradient)"/>
    </g>
  </g>
</svg>
